<?xml version="1.0" standalone="no"?>
<!DOCTYPE svg PUBLIC "-//W3C//DTD SVG 20010904//EN"
 "http://www.w3.org/TR/2001/REC-SVG-20010904/DTD/svg10.dtd">
<svg version="1.0" xmlns="http://www.w3.org/2000/svg"
 width="500.000000pt" height="500.000000pt" viewBox="0 0 500.000000 500.000000"
 preserveAspectRatio="xMidYMid meet">

<g transform="translate(0.000000,500.000000) scale(0.100000,-0.100000)"
fill="#000000" stroke="none">
<path d="M1390 2500 l0 -1002 488 4 487 4 90 27 c179 55 307 129 439 256 138
133 241 318 281 507 23 104 23 302 1 404 -22 103 -72 229 -104 264 -35 37 -97
66 -144 66 -36 0 -118 -26 -118 -38 0 -3 10 -19 23 -36 125 -167 179 -426 129
-624 -44 -172 -100 -272 -222 -392 -81 -80 -151 -127 -250 -167 -119 -48 -170
-53 -537 -53 l-343 0 0 781 0 780 373 -3 c354 -4 375 -5 440 -26 37 -13 67
-25 67 -28 0 -4 -21 -29 -46 -58 -99 -109 -180 -257 -224 -406 -27 -92 -39
-323 -21 -423 19 -108 69 -250 103 -292 57 -69 146 -92 228 -59 22 9 40 18 40
20 0 2 -18 31 -39 64 -150 231 -169 516 -52 764 68 146 201 285 342 361 l60
32 -38 33 c-102 90 -255 169 -411 213 -73 20 -104 21 -559 25 l-483 3 0 -1001z"/>
<path d="M2195 3188 c-189 -97 -328 -266 -392 -475 -22 -75 -26 -106 -26 -213
0 -107 4 -138 26 -213 65 -214 205 -380 407 -482 59 -30 59 -30 -2 47 -59 74
-128 205 -161 307 -76 229 -77 453 -1 680 42 128 96 225 195 354 11 15 19 27
17 27 -1 -1 -30 -15 -63 -32z"/>
<path d="M3176 3146 c142 -187 214 -404 214 -641 0 -248 -72 -464 -216 -653
l-56 -74 84 43 c65 34 103 63 178 139 108 108 163 199 202 335 32 114 32 296
0 410 -63 219 -228 410 -433 501 -23 10 -19 2 27 -60z"/>
</g>
</svg>
